<?xml version="1.0" encoding="UTF-8" standalone="no"?>
<!-- Created with Inkscape (http://www.inkscape.org/) -->

<svg
   xmlns:dc="http://purl.org/dc/elements/1.1/"
   xmlns:cc="http://creativecommons.org/ns#"
   xmlns:rdf="http://www.w3.org/1999/02/22-rdf-syntax-ns#"
   xmlns:svg="http://www.w3.org/2000/svg"
   xmlns="http://www.w3.org/2000/svg"
   xmlns:sodipodi="http://sodipodi.sourceforge.net/DTD/sodipodi-0.dtd"
   xmlns:inkscape="http://www.inkscape.org/namespaces/inkscape"
   width="210mm"
   height="297mm"
   viewBox="0 0 744.09448819 1052.3622047"
   id="svg2"
   version="1.1"
   inkscape:version="0.91 r13725"
   sodipodi:docname="sloper.svg">
  <defs
     id="defs4" />
  <sodipodi:namedview
     id="base"
     pagecolor="#ffffff"
     bordercolor="#666666"
     borderopacity="1.0"
     inkscape:pageopacity="0.0"
     inkscape:pageshadow="2"
     inkscape:zoom="1"
     inkscape:cx="529.07"
     inkscape:cy="616.5"
     inkscape:document-units="px"
     inkscape:current-layer="layer1"
     showgrid="false"
     inkscape:window-width="1436"
     inkscape:window-height="855"
     inkscape:window-x="0"
     inkscape:window-y="1"
     inkscape:window-maximized="1" />
  <metadata
     id="metadata7">
    <rdf:RDF>
      <cc:Work
         rdf:about="">
        <dc:format>image/svg+xml</dc:format>
        <dc:type
           rdf:resource="http://purl.org/dc/dcmitype/StillImage" />
        <dc:title></dc:title>
      </cc:Work>
    </rdf:RDF>
  </metadata>
  <g
     inkscape:label="Layer 1"
     inkscape:groupmode="layer"
     id="layer1">
    <text
       xml:space="preserve"
       style="font-style:normal;font-weight:normal;font-size:40px;line-height:125%;font-family:sans-serif;letter-spacing:0px;word-spacing:0px;fill:#000000;fill-opacity:1;stroke:none;stroke-width:1px;stroke-linecap:butt;stroke-linejoin:miter;stroke-opacity:1"
       x="998.21002"
       y="102.32001"
       id="text4149"
       sodipodi:linespacing="125%"><tspan
         sodipodi:role="line"
         id="tspan4151"
         x="998.21002"
         y="102.32001">AB full_length</tspan><tspan
         sodipodi:role="line"
         x="998.21002"
         y="152.32001"
         id="tspan4293">AC across_shoulder </tspan><tspan
         sodipodi:role="line"
         x="998.21002"
         y="202.32001"
         id="tspan4295">BD center_front_length - 3/8&quot;</tspan><tspan
         sodipodi:role="line"
         x="998.21002"
         y="252.32001"
         id="tspan4297">BE shoulder_slope w E's x = C's x</tspan><tspan
         sodipodi:role="line"
         x="998.21002"
         y="302.32001"
         id="tspan4307">FE shoulder_length w F's y = C's y</tspan><tspan
         sodipodi:role="line"
         x="998.21002"
         y="352.32001"
         id="tspan4311">FG is perpendicular to FE with G's y = D's y</tspan><tspan
         sodipodi:role="line"
         x="998.21002"
         y="402.32001"
         id="tspan4305">GH ½” line at 45 deg from FG and GD</tspan><tspan
         sodipodi:role="line"
         x="998.21002"
         y="452.32001"
         id="tspan4321">EI armhole_depth</tspan><tspan
         sodipodi:role="line"
         x="998.21002"
         y="502.32001"
         id="tspan4323">IJ 2&quot; //if short, 1&quot;</tspan><tspan
         sodipodi:role="line"
         x="998.21002"
         y="552.32001"
         id="tspan4325">EK 1/2 armhole_depth</tspan><tspan
         sodipodi:role="line"
         x="998.21002"
         y="602.32001"
         id="tspan4327">KM 1/2&quot;</tspan><tspan
         sodipodi:role="line"
         x="998.21002"
         y="652.32001"
         id="tspan4329">EN bust_depth</tspan><tspan
         sodipodi:role="line"
         x="998.21002"
         y="702.32001"
         id="tspan4333">OP bust_span parallel to CF passing through N</tspan><tspan
         sodipodi:role="line"
         x="998.21002"
         y="752.32001"
         id="tspan4339">OQ bust_arc (Made of OP and QP)</tspan><tspan
         sodipodi:role="line"
         x="998.21002"
         y="802.32001"
         id="tspan4343">PR QP +1/2&quot; where R's y = I's y</tspan><tspan
         sodipodi:role="line"
         x="998.21002"
         y="852.32001"
         id="tspan4345">RS side_seam_length with line passing through Q</tspan><tspan
         sodipodi:role="line"
         x="998.21002"
         y="902.32001"
         id="tspan4347">RT 1/2&quot;</tspan><tspan
         sodipodi:role="line"
         x="998.21002"
         y="952.32001"
         id="tspan4351">BU dart placement from B</tspan><tspan
         sodipodi:role="line"
         x="998.21002"
         y="1002.32"
         id="tspan4349">UV 3/16” squared down from U</tspan><tspan
         sodipodi:role="line"
         x="998.21002"
         y="1052.3201"
         id="tspan4355">Find W on line SV where SW is waist_arc - dart_placement</tspan><tspan
         sodipodi:role="line"
         x="998.21002"
         y="1102.3201"
         id="tspan4357">PX length PV through W</tspan><tspan
         sodipodi:role="line"
         x="998.21002"
         y="1152.3201"
         id="tspan4359">1/8” squared out from T (the diagram does not show this step because drawing 1/8” is very hard to see/draw). This is the ease added to bust. It may not seem like a lot but 1/8” ease on front and back will give ½” in the round</tspan><tspan
         sodipodi:role="line"
         x="998.21002"
         y="1202.3201"
         id="tspan4353" /></text>
    <g
       id="g4846"
       transform="matrix(2.0306,0,0,2.0306,-364,-524.36)">
      <path
         inkscape:connector-curvature="0"
         id="path4147"
         d="m 265.79,287.17 0,271.73"
         style="fill:none;fill-rule:evenodd;stroke:#000000;stroke-width:1px;stroke-linecap:butt;stroke-linejoin:miter;stroke-opacity:1" />
      <text
         transform="scale(-1,1)"
         sodipodi:linespacing="125%"
         id="text4153"
         y="289.19659"
         x="-261.43814"
         style="font-style:normal;font-weight:normal;font-size:9.51545px;line-height:125%;font-family:sans-serif;letter-spacing:0px;word-spacing:0px;fill:#000000;fill-opacity:1;stroke:none;stroke-width:1px;stroke-linecap:butt;stroke-linejoin:miter;stroke-opacity:1"
         xml:space="preserve"><tspan
           y="289.19659"
           x="-261.43814"
           id="tspan4155"
           sodipodi:role="line">A</tspan></text>
      <text
         xml:space="preserve"
         style="font-style:normal;font-weight:normal;font-size:9.51545px;line-height:125%;font-family:sans-serif;letter-spacing:0px;word-spacing:0px;fill:#000000;fill-opacity:1;stroke:none;stroke-width:1px;stroke-linecap:butt;stroke-linejoin:miter;stroke-opacity:1"
         x="254.65002"
         y="569.19659"
         id="text4157"
         sodipodi:linespacing="125%"><tspan
           sodipodi:role="line"
           id="tspan4159"
           x="254.65002"
           y="569.19659">B</tspan></text>
      <path
         d="m 391.91,277.3 0,0.92 q -0.44,-0.41 -0.94,-0.62 -0.5,-0.2 -1.07,-0.2 -1.12,0 -1.71,0.68 -0.59,0.68 -0.59,1.97 0,1.29 0.59,1.97 0.59,0.68 1.71,0.68 0.57,0 1.07,-0.2 0.5,-0.21 0.94,-0.62 l 0,0.92 q -0.46,0.31 -0.97,0.47 -0.52,0.15 -1.09,0.15 -1.48,0 -2.33,-0.9 -0.85,-0.9 -0.85,-2.47 0,-1.56 0.85,-2.47 0.85,-0.9 2.33,-0.9 0.58,0 1.09,0.16 0.52,0.15 0.97,0.46 z"
         id="path4166"
         inkscape:connector-curvature="0"
         style="font-style:normal;font-weight:normal;font-size:medium;line-height:125%;font-family:sans-serif;letter-spacing:0px;word-spacing:0px;fill:#000000;fill-opacity:1;stroke:none;stroke-width:1px;stroke-linecap:butt;stroke-linejoin:miter;stroke-opacity:1" />
      <path
         d="m 254.44,325.5 0,5.05 1.07,0 q 1.34,0 1.96,-0.61 0.63,-0.6 0.63,-1.92 0,-1.31 -0.63,-1.91 -0.62,-0.61 -1.96,-0.61 l -1.07,0 z m -0.88,-0.72 1.81,0 q 1.89,0 2.77,0.78 0.89,0.79 0.89,2.46 0,1.68 -0.89,2.47 -0.89,0.79 -2.77,0.79 l -1.81,0 0,-6.5 z"
         id="path4168"
         inkscape:connector-curvature="0"
         style="font-style:normal;font-weight:normal;font-size:medium;line-height:125%;font-family:sans-serif;letter-spacing:0px;word-spacing:0px;fill:#000000;fill-opacity:1;stroke:none;stroke-width:1px;stroke-linecap:butt;stroke-linejoin:miter;stroke-opacity:1" />
      <path
         d="m 387.38,317.71 4.11,0 0,0.74 -3.24,0 0,1.92 3.1,0 0,0.74 -3.1,0 0,2.36 3.31,0 0,0.74 -4.18,0 0,-6.5 z"
         id="path4170"
         inkscape:connector-curvature="0"
         style="font-style:normal;font-weight:normal;font-size:medium;line-height:125%;font-family:sans-serif;letter-spacing:0px;word-spacing:0px;fill:#000000;fill-opacity:1;stroke:none;stroke-width:1px;stroke-linecap:butt;stroke-linejoin:miter;stroke-opacity:1" />
      <path
         d="m 304.42,276.8 3.74,0 0,0.74 -2.86,0 0,1.91 2.58,0 0,0.74 -2.58,0 0,3.11 -0.88,0 0,-6.5 z"
         id="path4172"
         inkscape:connector-curvature="0"
         style="font-style:normal;font-weight:normal;font-size:medium;line-height:125%;font-family:sans-serif;letter-spacing:0px;word-spacing:0px;fill:#000000;fill-opacity:1;stroke:none;stroke-width:1px;stroke-linecap:butt;stroke-linejoin:miter;stroke-opacity:1" />
      <path
         d="m 293.45,338.94 0,-1.75 -1.44,0 0,-0.72 2.31,0 0,2.79 q -0.51,0.36 -1.13,0.55 -0.61,0.18 -1.31,0.18 -1.52,0 -2.38,-0.89 -0.86,-0.89 -0.86,-2.48 0,-1.59 0.86,-2.48 0.86,-0.89 2.38,-0.89 0.64,0 1.21,0.16 0.57,0.15 1.06,0.46 l 0,0.93 q -0.49,-0.41 -1.04,-0.62 -0.55,-0.21 -1.15,-0.21 -1.2,0 -1.8,0.67 -0.59,0.66 -0.59,1.98 0,1.32 0.59,1.99 0.6,0.66 1.8,0.66 0.46,0 0.83,-0.1 0.36,-0.1 0.66,-0.25 z"
         id="path4174"
         inkscape:connector-curvature="0"
         style="font-style:normal;font-weight:normal;font-size:medium;line-height:125%;font-family:sans-serif;letter-spacing:0px;word-spacing:0px;fill:#000000;fill-opacity:1;stroke:none;stroke-width:1px;stroke-linecap:butt;stroke-linejoin:miter;stroke-opacity:1" />
      <path
         d="m 281.98,312.66 -0.88,0 0,2.66 -3.2,0 0,-2.66 -0.87,0 0,6.5 0.87,0 0,-3.1 3.2,0 0,3.1 0.88,0 0,-6.5 z"
         id="path4176"
         inkscape:connector-curvature="0"
         style="font-style:normal;font-weight:normal;font-size:medium;line-height:125%;font-family:sans-serif;letter-spacing:0px;word-spacing:0px;fill:#000000;fill-opacity:1;stroke:none;stroke-width:1px;stroke-linecap:butt;stroke-linejoin:miter;stroke-opacity:1" />
      <path
         d="m 390.94,388.92 -0.88,0 0,6.5 0.88,0 0,-6.5 z"
         id="path4178"
         inkscape:connector-curvature="0"
         style="font-style:normal;font-weight:normal;font-size:medium;line-height:125%;font-family:sans-serif;letter-spacing:0px;word-spacing:0px;fill:#000000;fill-opacity:1;stroke:none;stroke-width:1px;stroke-linecap:butt;stroke-linejoin:miter;stroke-opacity:1" />
      <path
         d="m 387.75,423.77 0.88,0 0,6.04 q 0,1.18 -0.44,1.71 -0.45,0.53 -1.44,0.53 l -0.33,0 0,-0.74 0.27,0 q 0.59,0 0.83,-0.33 0.23,-0.32 0.23,-1.17 l 0,-6.04 z"
         id="path4180"
         inkscape:connector-curvature="0"
         style="font-style:normal;font-weight:normal;font-size:medium;line-height:125%;font-family:sans-serif;letter-spacing:0px;word-spacing:0px;fill:#000000;fill-opacity:1;stroke:none;stroke-width:1px;stroke-linecap:butt;stroke-linejoin:miter;stroke-opacity:1" />
      <path
         d="m 387.09,358.62 0.87,0 0,2.74 2.92,-2.74 1.14,0 -3.23,3.03 3.45,3.47 -1.15,0 -3.13,-3.13 0,3.13 -0.87,0 0,-6.5 z"
         id="path4182"
         inkscape:connector-curvature="0"
         style="font-style:normal;font-weight:normal;font-size:medium;line-height:125%;font-family:sans-serif;letter-spacing:0px;word-spacing:0px;fill:#000000;fill-opacity:1;stroke:none;stroke-width:1px;stroke-linecap:butt;stroke-linejoin:miter;stroke-opacity:1" />
      <path
         d="m 256.08,355.08 0.88,0 0,5.76 3.16,0 0,0.74 -4.04,0 0,-6.5 z"
         id="path4184"
         inkscape:connector-curvature="0"
         style="font-style:normal;font-weight:normal;font-size:medium;line-height:125%;font-family:sans-serif;letter-spacing:0px;word-spacing:0px;fill:#000000;fill-opacity:1;stroke:none;stroke-width:1px;stroke-linecap:butt;stroke-linejoin:miter;stroke-opacity:1" />
      <path
         d="m 370.76,369.23 -1.45,0 -1.83,4.89 -1.84,-4.89 -1.45,0 0,7.18 0.95,0 0,-6.31 1.85,4.93 0.97,0 1.86,-4.93 0,6.31 0.94,0 0,-7.18 z"
         id="path4217"
         inkscape:connector-curvature="0"
         style="font-style:normal;font-weight:normal;font-size:medium;line-height:125%;font-family:sans-serif;letter-spacing:0px;word-spacing:0px;fill:#000000;fill-opacity:1;stroke:none;stroke-width:1px;stroke-linecap:butt;stroke-linejoin:miter;stroke-opacity:1" />
      <path
         d="m 310.86,432.87 1.31,0 3.18,6.01 0,-6.01 0.95,0 0,7.18 -1.31,0 -3.19,-6.01 0,6.01 -0.94,0 0,-7.18 z"
         id="path4219"
         inkscape:connector-curvature="0"
         style="font-style:normal;font-weight:normal;font-size:medium;line-height:125%;font-family:sans-serif;letter-spacing:0px;word-spacing:0px;fill:#000000;fill-opacity:1;stroke:none;stroke-width:1px;stroke-linecap:butt;stroke-linejoin:miter;stroke-opacity:1" />
      <path
         d="m 257.02,439.59 q 1.06,0 1.69,0.79 0.62,0.79 0.62,2.15 0,1.36 -0.62,2.14 -0.63,0.79 -1.69,0.79 -1.06,0 -1.67,-0.79 -0.62,-0.78 -0.62,-2.14 0,-1.36 0.62,-2.15 0.61,-0.79 1.67,-0.79 z m 0,-0.79 q -1.51,0 -2.41,1.01 -0.91,1.01 -0.91,2.72 0,1.7 0.91,2.71 0.9,1.01 2.41,1.01 1.52,0 2.43,-1.01 0.9,-1.01 0.9,-2.71 0,-1.71 -0.9,-2.72 -0.91,-1.01 -2.43,-1.01 z"
         id="path4221"
         inkscape:connector-curvature="0"
         style="font-style:normal;font-weight:normal;font-size:medium;line-height:125%;font-family:sans-serif;letter-spacing:0px;word-spacing:0px;fill:#000000;fill-opacity:1;stroke:none;stroke-width:1px;stroke-linecap:butt;stroke-linejoin:miter;stroke-opacity:1" />
      <path
         d="m 342.96,452.36 0,2.7 1.22,0 q 0.68,0 1.05,-0.35 0.37,-0.35 0.37,-1 0,-0.65 -0.37,-1 -0.37,-0.35 -1.05,-0.35 l -1.22,0 z m -0.97,-0.8 2.19,0 q 1.21,0 1.83,0.55 0.62,0.54 0.62,1.6 0,1.06 -0.62,1.6 -0.62,0.55 -1.83,0.55 l -1.22,0 0,2.88 -0.97,0 0,-7.18 z"
         id="path4223"
         inkscape:connector-curvature="0"
         style="font-style:normal;font-weight:normal;font-size:medium;line-height:125%;font-family:sans-serif;letter-spacing:0px;word-spacing:0px;fill:#000000;fill-opacity:1;stroke:none;stroke-width:1px;stroke-linecap:butt;stroke-linejoin:miter;stroke-opacity:1" />
      <path
         d="m 415.06,439.09 q -1.06,0 -1.68,0.79 -0.62,0.79 -0.62,2.15 0,1.36 0.62,2.14 0.62,0.79 1.68,0.79 1.06,0 1.67,-0.79 0.63,-0.78 0.63,-2.14 0,-1.36 -0.63,-2.15 -0.61,-0.79 -1.67,-0.79 z m 1.36,6.39 1.28,1.4 -1.17,0 -1.06,-1.15 q -0.16,0 -0.25,0 -0.1,0 -0.16,0 -1.52,0 -2.42,-1.01 -0.91,-1.02 -0.91,-2.72 0,-1.7 0.91,-2.71 0.9,-1.02 2.42,-1.02 1.51,0 2.42,1.02 0.9,1.01 0.9,2.71 0,1.26 -0.5,2.14 -0.5,0.89 -1.46,1.32 z"
         id="path4225"
         inkscape:connector-curvature="0"
         style="font-style:normal;font-weight:normal;font-size:medium;line-height:125%;font-family:sans-serif;letter-spacing:0px;word-spacing:0px;fill:#000000;fill-opacity:1;stroke:none;stroke-width:1px;stroke-linecap:butt;stroke-linejoin:miter;stroke-opacity:1" />
      <path
         d="m 406.5,392.75 q 0.31,0.1 0.6,0.45 0.3,0.34 0.6,0.95 l 0.99,1.96 -1.05,0 -0.92,-1.84 q -0.35,-0.72 -0.69,-0.96 -0.33,-0.23 -0.91,-0.23 l -1.06,0 0,3.03 -0.97,0 0,-7.18 2.2,0 q 1.23,0 1.83,0.51 0.61,0.52 0.61,1.56 0,0.68 -0.32,1.12 -0.31,0.45 -0.91,0.63 z m -2.44,-3.02 0,2.55 1.23,0 q 0.7,0 1.06,-0.33 0.35,-0.32 0.35,-0.95 0,-0.63 -0.35,-0.95 -0.36,-0.32 -1.06,-0.32 l -1.23,0 z"
         id="path4227"
         inkscape:connector-curvature="0"
         style="font-style:normal;font-weight:normal;font-size:medium;line-height:125%;font-family:sans-serif;letter-spacing:0px;word-spacing:0px;fill:#000000;fill-opacity:1;stroke:none;stroke-width:1px;stroke-linecap:butt;stroke-linejoin:miter;stroke-opacity:1" />
      <path
         d="m 459.3,522.51 0,0.94 q -0.55,-0.26 -1.04,-0.39 -0.49,-0.13 -0.95,-0.13 -0.8,0 -1.23,0.31 -0.43,0.31 -0.43,0.87 0,0.48 0.29,0.72 0.29,0.25 1.08,0.39 l 0.59,0.12 q 1.09,0.21 1.6,0.74 0.52,0.52 0.52,1.39 0,1.04 -0.7,1.58 -0.7,0.54 -2.05,0.54 -0.51,0 -1.09,-0.11 -0.57,-0.12 -1.18,-0.34 l 0,-1 q 0.59,0.33 1.15,0.5 0.57,0.16 1.12,0.16 0.83,0 1.29,-0.32 0.45,-0.33 0.45,-0.94 0,-0.53 -0.33,-0.82 -0.32,-0.3 -1.06,-0.45 l -0.59,-0.12 q -1.09,-0.21 -1.58,-0.68 -0.48,-0.46 -0.48,-1.28 0,-0.95 0.66,-1.5 0.68,-0.55 1.86,-0.55 0.5,0 1.03,0.1 0.52,0.1 1.07,0.28 z"
         id="path4229"
         inkscape:connector-curvature="0"
         style="font-style:normal;font-weight:normal;font-size:medium;line-height:125%;font-family:sans-serif;letter-spacing:0px;word-spacing:0px;fill:#000000;fill-opacity:1;stroke:none;stroke-width:1px;stroke-linecap:butt;stroke-linejoin:miter;stroke-opacity:1" />
      <path
         d="m 427.88,403.58 -6.08,0 0,0.82 2.55,0 0,6.36 0.98,0 0,-6.36 2.55,0 0,-0.82 z"
         id="path4231"
         inkscape:connector-curvature="0"
         style="font-style:normal;font-weight:normal;font-size:medium;line-height:125%;font-family:sans-serif;letter-spacing:0px;word-spacing:0px;fill:#000000;fill-opacity:1;stroke:none;stroke-width:1px;stroke-linecap:butt;stroke-linejoin:miter;stroke-opacity:1" />
      <path
         d="m 320.94,552.07 -0.98,0 0,4.36 q 0,1.16 -0.42,1.67 -0.42,0.5 -1.35,0.5 -0.94,0 -1.36,-0.5 -0.42,-0.51 -0.42,-1.67 l 0,-4.36 -0.97,0 0,4.48 q 0,1.41 0.7,2.13 0.69,0.71 2.05,0.71 1.36,0 2.06,-0.71 0.69,-0.72 0.69,-2.13 l 0,-4.48 z"
         id="path4233"
         inkscape:connector-curvature="0"
         style="font-style:normal;font-weight:normal;font-size:medium;line-height:125%;font-family:sans-serif;letter-spacing:0px;word-spacing:0px;fill:#000000;fill-opacity:1;stroke:none;stroke-width:1px;stroke-linecap:butt;stroke-linejoin:miter;stroke-opacity:1" />
      <path
         d="m 306.71,582.48 2.74,-7.18 -1.01,0 -2.28,6.05 -2.28,-6.05 -1.01,0 2.73,7.18 1.11,0 z"
         id="path4235"
         inkscape:connector-curvature="0"
         style="font-style:normal;font-weight:normal;font-size:medium;line-height:125%;font-family:sans-serif;letter-spacing:0px;word-spacing:0px;fill:#000000;fill-opacity:1;stroke:none;stroke-width:1px;stroke-linecap:butt;stroke-linejoin:miter;stroke-opacity:1" />
      <path
         d="m 374.69,535.91 -0.98,0 -1.51,6.07 -1.51,-6.07 -1.09,0 -1.51,6.07 -1.5,-6.07 -0.99,0 1.8,7.18 1.23,0 1.51,-6.23 1.53,6.23 1.22,0 1.8,-7.18 z"
         id="path4237"
         inkscape:connector-curvature="0"
         style="font-style:normal;font-weight:normal;font-size:medium;line-height:125%;font-family:sans-serif;letter-spacing:0px;word-spacing:0px;fill:#000000;fill-opacity:1;stroke:none;stroke-width:1px;stroke-linecap:butt;stroke-linejoin:miter;stroke-opacity:1" />
      <path
         d="m 383.85,561.16 -1.04,0 -1.79,2.67 -1.79,-2.67 -1.05,0 2.31,3.45 -2.46,3.73 1.04,0 2.02,-3.05 2.04,3.05 1.05,0 -2.57,-3.83 2.24,-3.35 z"
         id="path4239"
         inkscape:connector-curvature="0"
         style="font-style:normal;font-weight:normal;font-size:medium;line-height:125%;font-family:sans-serif;letter-spacing:0px;word-spacing:0px;fill:#000000;fill-opacity:1;stroke:none;stroke-width:1px;stroke-linecap:butt;stroke-linejoin:miter;stroke-opacity:1" />
      <path
         inkscape:connector-curvature="0"
         id="path4253"
         d="M 430.45,431.62 327.41,443.24"
         style="fill:none;fill-rule:evenodd;stroke:#000000;stroke-width:1px;stroke-linecap:butt;stroke-linejoin:miter;stroke-opacity:1" />
      <path
         inkscape:connector-curvature="0"
         id="path4255"
         d="m 421.36,393.74 -92.94,49.5"
         style="fill:none;fill-rule:evenodd;stroke:#000000;stroke-width:1px;stroke-linecap:butt;stroke-linejoin:miter;stroke-opacity:1" />
      <path
         inkscape:connector-curvature="0"
         id="path4257"
         d="m 265.79,442.23 63.14,0.51"
         style="fill:none;fill-rule:evenodd;stroke:#000000;stroke-width:1px;stroke-linecap:butt;stroke-linejoin:miter;stroke-opacity:1" />
      <path
         inkscape:connector-curvature="0"
         id="path4259"
         d="M 386.51,551.33 327.41,443.24 308.72,565.97 265.79,558.4"
         style="fill:none;fill-rule:evenodd;stroke:#000000;stroke-width:1px;stroke-linecap:butt;stroke-linejoin:miter;stroke-opacity:1" />
      <path
         inkscape:connector-curvature="0"
         id="path4261"
         d="M 380.44,321.01 266.3,557.89"
         style="fill:none;fill-rule:evenodd;stroke:#000000;stroke-width:1px;stroke-linecap:butt;stroke-linejoin:miter;stroke-opacity:1" />
      <path
         inkscape:connector-curvature="0"
         id="path4263"
         d="m 305.69,288.69 -18.18,40.4"
         style="fill:none;fill-rule:evenodd;stroke:#000000;stroke-width:1px;stroke-linecap:butt;stroke-linejoin:miter;stroke-opacity:1" />
      <path
         inkscape:connector-curvature="0"
         id="path4265"
         d="m 314.78,328.59 -48.99,1.01"
         style="fill:none;fill-rule:evenodd;stroke:#000000;stroke-width:1px;stroke-linecap:butt;stroke-linejoin:miter;stroke-opacity:1" />
      <path
         inkscape:connector-curvature="0"
         id="path4267"
         d="m 283.98,324.04 4.04,5.56"
         style="fill:none;fill-rule:evenodd;stroke:#000000;stroke-width:1px;stroke-linecap:butt;stroke-linejoin:miter;stroke-opacity:1" />
      <path
         inkscape:connector-curvature="0"
         id="path4269"
         d="M 380.44,320.51 305.69,287.17"
         style="fill:none;fill-rule:evenodd;stroke:#000000;stroke-width:1px;stroke-linecap:butt;stroke-linejoin:miter;stroke-opacity:1" />
      <path
         inkscape:connector-curvature="0"
         id="path4271"
         d="M 380.95,357.88 266.8,358.39"
         style="fill:none;fill-rule:evenodd;stroke:#000000;stroke-width:1px;stroke-linecap:butt;stroke-linejoin:miter;stroke-opacity:1" />
      <path
         inkscape:connector-curvature="0"
         id="path4273"
         d="M 381.45,288.18 266.3,287.68"
         style="fill:none;fill-rule:evenodd;stroke:#000000;stroke-width:1px;stroke-linecap:butt;stroke-linejoin:miter;stroke-opacity:1" />
      <path
         inkscape:connector-curvature="0"
         id="path4275"
         d="m 441.56,434.15 -62.13,-0.51"
         style="fill:none;fill-rule:evenodd;stroke:#000000;stroke-width:1px;stroke-linecap:butt;stroke-linejoin:miter;stroke-opacity:1" />
      <path
         inkscape:connector-curvature="0"
         id="path4277"
         d="m 443.07,398.79 -62.63,0.51"
         style="fill:none;fill-rule:evenodd;stroke:#000000;stroke-width:1px;stroke-linecap:butt;stroke-linejoin:miter;stroke-opacity:1" />
      <path
         inkscape:connector-curvature="0"
         id="path4279"
         d="m 380.44,288.18 -0.5,145.46"
         style="fill:none;fill-rule:evenodd;stroke:#000000;stroke-width:1px;stroke-linecap:butt;stroke-linejoin:miter;stroke-opacity:1" />
      <path
         inkscape:connector-curvature="0"
         id="path4281"
         d="m 415.29,404.35 -8.08,4.55"
         style="fill:none;fill-rule:evenodd;stroke:#000000;stroke-width:1px;stroke-linecap:butt;stroke-linejoin:miter;stroke-opacity:1" />
      <path
         inkscape:connector-curvature="0"
         id="path4283"
         d="M 449.14,523.04 308.22,565.97"
         style="fill:none;fill-rule:evenodd;stroke:#000000;stroke-width:1px;stroke-linecap:butt;stroke-linejoin:miter;stroke-opacity:1" />
      <path
         inkscape:connector-curvature="0"
         id="path4285"
         d="m 384.49,550.32 62.62,-27.28"
         style="fill:none;fill-rule:evenodd;stroke:#000000;stroke-width:1px;stroke-linecap:butt;stroke-linejoin:miter;stroke-opacity:1" />
      <path
         sodipodi:nodetypes="czc"
         inkscape:connector-curvature="0"
         id="path4287"
         d="m 306.2,287.68 c 0,0 -5.05,30.8 -22.73,36.36 -17.68,5.56 -17.68,5.56 -17.68,5.56"
         style="fill:none;fill-rule:evenodd;stroke:#000000;stroke-width:1px;stroke-linecap:butt;stroke-linejoin:miter;stroke-opacity:1" />
      <path
         inkscape:connector-curvature="0"
         id="path4289"
         d="m 381.45,320.51 c 0,0 -8.58,20.7 -8.08,36.87 0.51,16.16 -2.52,52.02 36.87,50"
         style="fill:none;fill-rule:evenodd;stroke:#000000;stroke-width:1px;stroke-linecap:butt;stroke-linejoin:miter;stroke-opacity:1" />
      <path
         inkscape:connector-curvature="0"
         id="path4291"
         d="M 448.12,522.03 407.72,400.31"
         style="fill:none;fill-rule:evenodd;stroke:#000000;stroke-width:1px;stroke-linecap:butt;stroke-linejoin:miter;stroke-opacity:1" />
    </g>
    <text
       xml:space="preserve"
       style="font-style:normal;font-weight:normal;font-size:40px;line-height:125%;font-family:sans-serif;letter-spacing:0px;word-spacing:0px;fill:#000000;fill-opacity:1;stroke:none;stroke-width:1px;stroke-linecap:butt;stroke-linejoin:miter;stroke-opacity:1"
       x="1648.6"
       y="118.08"
       id="text4361"
       sodipodi:linespacing="125%"><tspan
         sodipodi:role="line"
         id="tspan4363"
         x="1648.6"
         y="118.08" /></text>
    <g
       id="g4989"
       transform="matrix(-0.38842,0.92148,-0.92148,-0.38842,304.41,-373.01)">
      <path
         inkscape:connector-curvature="0"
         d="m 249.31,-191.4 c -0.42,9.77 -0.52,19.55 -0.8,29.33 -0.53,17.77 -0.64,35.54 -0.66,53.31 0.1,8.05 0.19,16.098 0.25,24.148 0,3.003 0.21,6.006 0,9.004 -0.13,1.189 -0.29,2.387 -0.22,3.584 0.1,0.512 0.1,0.581 0.61,0.643 0.34,0.04 0.69,0.08 1.03,0.115 1.43,0.128 1.8,0.125 3.31,0.189 3.62,0 7.21,0.509 10.82,0.759 4.82,0.28 9.64,0.3 14.46,0.332 6.06,0.07 12.12,-0.01 18.18,0.1 4.95,-0.05 9.82,0.916 14.7,1.564 5.3,0.604 10.62,0.964 15.94,1.183 2.82,0.08 5.63,0.05 8.43,0.373 3.43,0.399 6.88,0.577 10.34,0.684 1.52,-0.1 3.12,0.271 4.61,-0.06 0.37,-0.156 0.26,-0.03 0.41,-0.306 0,0 -5.86,4.747 -5.86,4.747 l 0,0 c -0.32,0 -0.14,-0.01 -0.55,0.03 -1.52,0.05 -3.04,-0.08 -4.56,-0.128 -3.45,-0.189 -6.9,-0.421 -10.34,-0.734 -2.77,-0.229 -5.54,-0.206 -8.31,-0.411 -5.32,-0.33 -10.63,-0.741 -15.93,-1.266 -4.84,-0.617 -9.66,-1.575 -14.56,-1.564 -6.08,-0.123 -12.16,-0.02 -18.24,-0.04 -4.86,-0.02 -9.73,-0.05 -14.58,-0.301 -3.61,-0.236 -7.21,-0.715 -10.83,-0.727 -1.29,-0.04 -4.35,0.118 -5.37,-0.821 -0.28,-0.263 -0.28,-0.557 -0.34,-0.899 -0.15,-1.241 0.1,-2.503 0.17,-3.741 0.5,-3.008 0.34,-6.061 0.42,-9.098 0.1,-8.18 0.26,-16.357 0.49,-24.529 0.32,-17.82 0.76,-35.63 0.89,-53.44 0,-9.53 -0.1,-19.09 -0.56,-28.63 0,0 6.68,-3.4 6.68,-3.4 z"
         id="path4941"
         style="opacity:1;fill:#0000ff;fill-opacity:1;fill-rule:evenodd;stroke:none;stroke-width:10;stroke-linecap:round;stroke-linejoin:round;stroke-miterlimit:4;stroke-dasharray:none;stroke-dashoffset:0;stroke-opacity:1" />
      <path
         inkscape:connector-curvature="0"
         d="m 250.93,-190.1 c 0.55,1.66 1.51,3.08 2.55,4.47 1.85,2.34 3.77,4.62 5.73,6.87 4.74,5.37 9.43,10.78 14.11,16.2 4.25,4.78 8.25,9.76 12.15,14.83 4.4,5.69 8.77,11.4 13.28,17 3.96,4.87 7.99,9.7 12.36,14.22 4.1,4.41 7.85,9.12 11.65,13.78 2.07,2.42 3.97,5.04 6.36,7.177 0.56,0.509 1.4,1.128 2.01,1.596 2.81,2.714 5.33,5.733 7.86,8.711 2.11,2.446 3.94,5.107 5.7,7.809 1.22,1.633 2,3.542 3.1,5.235 0.64,0.77 1.45,1.359 2.16,2.073 0.8,0.799 1.42,1.768 2.13,2.644 0.11,0.146 0.22,0.292 0.33,0.439 0,0 -6.44,3.81 -6.44,3.81 l 0,0 c -0.1,-0.139 -0.2,-0.278 -0.3,-0.417 -0.68,-0.87 -1.31,-1.786 -2.1,-2.565 -0.75,-0.731 -1.63,-1.35 -2.2,-2.242 -1.05,-1.728 -1.82,-3.627 -3.02,-5.276 -1.71,-2.695 -3.45,-5.372 -5.52,-7.806 -2.49,-2.967 -5.01,-5.943 -7.92,-8.501 -0.76,-0.614 -1.3,-1.019 -2,-1.717 -2.26,-2.261 -4.03,-4.983 -6.11,-7.405 -3.77,-4.685 -7.68,-9.235 -11.79,-13.625 -4.28,-4.61 -8.12,-9.59 -12.11,-14.44 -4.56,-5.58 -9.04,-11.21 -13.43,-16.93 -3.92,-5.03 -7.89,-10.02 -12.08,-14.83 -4.65,-5.46 -9.28,-10.93 -14.28,-16.07 -2.08,-2.19 -4.13,-4.41 -5.98,-6.81 -1.06,-1.42 -2.07,-2.86 -2.72,-4.52 0,0 6.52,-3.71 6.52,-3.71 z"
         id="path4943"
         style="opacity:1;fill:#0000ff;fill-opacity:1;fill-rule:evenodd;stroke:none;stroke-width:10;stroke-linecap:round;stroke-linejoin:round;stroke-miterlimit:4;stroke-dasharray:none;stroke-dashoffset:0;stroke-opacity:1" />
      <path
         inkscape:connector-curvature="0"
         d="m 247.91,-73.321 c 0.23,-0.08 0.47,-0.145 0.7,-0.23 1.04,-0.385 1.7,-0.773 1.61,-0.721 -8.72,5.083 -6.58,3.844 -4.36,2.405 0.41,-0.267 0.81,-0.537 1.22,-0.806 2.54,-1.713 5.01,-3.509 7.61,-5.137 2.96,-1.982 5.98,-3.855 9.02,-5.713 3.15,-1.912 6.12,-4.079 9.13,-6.202 2.59,-1.941 5.39,-3.579 8.12,-5.306 3.15,-2.061 6.47,-3.83 9.72,-5.739 1.77,-1.04 -3.58,2.062 -5.37,3.082 -0.3,0.174 0.61,-0.361 0.91,-0.544 0.28,-0.173 0.56,-0.349 0.85,-0.524 1.4,-0.835 2.63,-1.904 3.94,-2.864 1.23,-0.88 2.51,-1.68 3.75,-2.54 2.5,-1.67 0.88,-0.6 7.15,-4.14 0.2,-0.11 0.8,-0.39 0.61,-0.28 -6.25,3.59 -8.04,4.99 -5.89,3.33 2.73,-1.87 5.48,-3.91 8.66,-4.9 0.8,-0.34 1.53,-0.77 2.28,-1.21 -11.26,6.36 -6.16,3.82 -3.84,2.01 0.4,-0.39 0.21,-0.18 0.57,-0.62 0,0 6.91,-2.92 6.91,-2.92 l 0,0 c -0.39,0.43 -0.21,0.19 -0.55,0.72 -2.48,2.52 -6.5,2.95 -8.92,5.53 -0.74,0.44 -1.54,0.78 -2.34,1.1 -0.31,0.13 -1.2,0.62 -0.91,0.45 10.63,-6.2 7.31,-4.31 5.12,-2.94 -2.35,1.71 -0.51,0.39 -6.96,4.14 -0.19,0.11 -0.78,0.4 -0.59,0.29 6.76,-3.95 8.01,-4.73 5.66,-3.28 -1.29,0.82 -2.53,1.71 -3.82,2.54 -1.33,0.95 -2.56,2.03 -3.94,2.91 -3.93,2.505 -16,9.255 -3.74,2.232 0.85,-0.487 -3.58,2.14 -2.5,1.543 -2.72,1.713 -5.51,3.341 -8.09,5.256 -3.05,2.104 -6.02,4.313 -9.16,6.261 -3.02,1.872 -6.09,3.667 -9,5.701 -2.6,1.594 -5.08,3.369 -7.58,5.105 -3.78,2.498 -7.53,5.298 -11.92,6.557 0,0 5.94,-4.546 5.94,-4.546 z"
         id="path4951"
         style="opacity:1;fill:#ff00ff;fill-opacity:1;fill-rule:evenodd;stroke:none;stroke-width:10;stroke-linecap:round;stroke-linejoin:round;stroke-miterlimit:4;stroke-dasharray:none;stroke-dashoffset:0;stroke-opacity:1" />
      <path
         inkscape:connector-curvature="0"
         d="m 319.2,-122.75 c -2.55,4.12 -5.34,8.07 -8.01,12.11 -2.04,2.94 -3.73,6.1 -5.49,9.21 -0.7,1.26 -1.38,2.53 -2.22,3.705 0,0 -7.01,2.695 -7.01,2.695 l 0,0 c 0.12,-0.01 0.25,0.03 0.35,-0.04 0.86,-0.55 1.61,-2.599 2.21,-3.391 1.84,-3.149 3.51,-6.399 5.67,-9.349 2.64,-3.91 5.32,-7.81 7.73,-11.87 0,0 6.77,-3.07 6.77,-3.07 z"
         id="path4953"
         style="opacity:1;fill:#0000ff;fill-opacity:1;fill-rule:evenodd;stroke:none;stroke-width:10;stroke-linecap:round;stroke-linejoin:round;stroke-miterlimit:4;stroke-dasharray:none;stroke-dashoffset:0;stroke-opacity:1" />
      <path
         inkscape:connector-curvature="0"
         d="m 301.51,-116.56 c 3.67,0.17 7.33,0.98 10.84,2.07 3.37,1.06 6.74,2.17 10.02,3.51 1.62,0.69 3.34,1.3 4.8,2.32 0.92,0.63 2.02,0.91 3.02,1.37 0,0 -6.21,4.13 -6.21,4.13 l 0,0 c -1.06,-0.45 -2.2,-0.76 -3.12,-1.48 -1.42,-0.95 -3.01,-1.61 -4.57,-2.28 -3.23,-1.35 -6.54,-2.47 -9.87,-3.53 -3.55,-1.04 -7.25,-1.85 -10.97,-1.71 0,0 6.06,-4.4 6.06,-4.4 z"
         id="path4955"
         style="opacity:1;fill:#0000ff;fill-opacity:1;fill-rule:evenodd;stroke:none;stroke-width:10;stroke-linecap:round;stroke-linejoin:round;stroke-miterlimit:4;stroke-dasharray:none;stroke-dashoffset:0;stroke-opacity:1" />
      <path
         inkscape:connector-curvature="0"
         d="m 251.17,-95.341 c 3.52,0.703 6.97,1.699 10.39,2.796 2.25,0.831 4.4,1.848 6.41,3.159 2.26,1.502 4.29,3.276 5.95,5.415 1.16,1.874 2.6,3.597 3.54,5.595 0.68,1.623 0.6,3.398 0.61,5.123 0,1.077 0,2.154 0,3.23 0,0 -6.61,3.361 -6.61,3.361 l 0,0 c 0,-1.08 0,-2.159 0,-3.239 0,-1.613 0,-3.278 -0.52,-4.82 -0.86,-1.969 -2.2,-3.697 -3.35,-5.498 -1.65,-2.054 -3.62,-3.777 -5.86,-5.181 -1.98,-1.22 -4.07,-2.23 -6.24,-3.058 -3.37,-1.162 -6.84,-2.216 -10.4,-2.502 0,0 6.03,-4.381 6.03,-4.381 z"
         id="path4957"
         style="opacity:1;fill:#0000ff;fill-opacity:1;fill-rule:evenodd;stroke:none;stroke-width:10;stroke-linecap:round;stroke-linejoin:round;stroke-miterlimit:4;stroke-dasharray:none;stroke-dashoffset:0;stroke-opacity:1" />
      <path
         inkscape:connector-curvature="0"
         d="m 258.59,-191.6 c 1.34,1.63 2.77,3.17 4.09,4.82 1.94,2.51 3.89,4.99 5.61,7.66 2.26,3.74 4.44,7.53 6.57,11.34 1.57,2.85 3.31,5.58 5.35,8.11 0.29,0.33 0.57,0.67 0.87,0.99 1.57,1.71 0.32,0.23 1.95,2.01 1,1.1 1.92,2.27 2.91,3.38 1.79,2.1 3.63,4.14 5.63,6.02 1.42,1.33 2.75,2.73 4.19,4.04 1.32,1.08 2.59,2.21 3.8,3.4 0.93,0.97 1.68,2.1 2.48,3.18 0.66,0.98 1.38,1.9 2.1,2.82 0.79,1.24 1.6,2.47 2.45,3.67 0.68,0.94 1.31,1.92 2.09,2.78 0.51,0.68 1.01,1.36 1.51,2.05 0.51,0.68 0.88,1.44 1.28,2.19 0.28,0.32 0.45,0.71 0.68,1.05 0,0 -6.48,3.8 -6.48,3.8 l 0,0 c -0.25,-0.37 -0.45,-0.77 -0.72,-1.13 -0.36,-0.72 -0.72,-1.45 -1.22,-2.09 -0.49,-0.66 -0.96,-1.35 -1.46,-2.01 -0.76,-0.9 -1.44,-1.87 -2.09,-2.87 -0.82,-1.2 -1.63,-2.42 -2.48,-3.6 -0.72,-0.93 -1.37,-1.91 -2.04,-2.87 -0.79,-1.04 -1.56,-2.11 -2.45,-3.07 -1.19,-1.2 -2.43,-2.35 -3.74,-3.41 -1.45,-1.3 -2.76,-2.72 -4.16,-4.07 -1.98,-1.93 -3.81,-4.01 -5.62,-6.1 -0.97,-1.11 -1.89,-2.27 -2.9,-3.35 -0.78,-0.84 -1.22,-1.19 -1.99,-2.04 -0.3,-0.33 -0.58,-0.67 -0.88,-1.01 -2.04,-2.58 -3.72,-5.4 -5.28,-8.29 -2.08,-3.83 -4.3,-7.57 -6.59,-11.27 -1.73,-2.64 -3.73,-5.06 -5.68,-7.54 -1.35,-1.65 -2.8,-3.21 -4.23,-4.79 0,0 6.45,-3.8 6.45,-3.8 z"
         id="path4961"
         style="opacity:1;fill:#ff00ff;fill-opacity:1;fill-rule:evenodd;stroke:none;stroke-width:10;stroke-linecap:round;stroke-linejoin:round;stroke-miterlimit:4;stroke-dasharray:none;stroke-dashoffset:0;stroke-opacity:1" />
      <path
         inkscape:connector-curvature="0"
         d="m 237.59,-69.206 c 0,-2.158 -0.5,-4.265 -0.91,-6.371 -0.55,-2.815 -1.31,-5.583 -2.47,-8.209 -1.25,-2.649 -2.45,-5.319 -3.66,-7.985 -1.78,-4.393 -3.57,-8.779 -5.41,-13.149 -2.03,-5.04 -3.92,-10.13 -5.52,-15.33 -1.02,-3.73 -2.43,-7.32 -3.82,-10.91 -1.16,-3.09 -2.42,-6.13 -3.56,-9.23 -1.4,-3.8 -2.98,-7.52 -4.68,-11.2 -1.47,-3.1 -2.94,-6.2 -4.24,-9.38 -1.27,-3.34 -2.84,-6.55 -4.2,-9.86 -1.24,-2.88 -2.51,-5.77 -3.81,-8.63 -0.59,-1.28 -1.38,-2.43 -2.14,-3.61 0,0 6.4,-3.73 6.4,-3.73 l 0,0 c 0.76,1.22 1.52,2.44 2.14,3.73 1.27,2.89 2.44,5.83 3.72,8.71 1.38,3.29 2.94,6.51 4.23,9.84 1.3,3.17 2.77,6.26 4.17,9.39 1.68,3.7 3.3,7.42 4.74,11.23 1.18,3.07 2.44,6.11 3.58,9.2 1.38,3.63 2.75,7.27 3.71,11.04 1.56,5.18 3.38,10.28 5.45,15.28 1.85,4.35 3.69,8.698 5.57,13.029 1.25,2.653 2.46,5.32 3.72,7.968 1.17,2.674 1.91,5.5 2.55,8.347 0.45,2.129 0.93,4.255 1.11,6.431 0,0 -6.67,3.399 -6.67,3.399 z"
         id="path4963"
         style="opacity:1;fill:#ff00ff;fill-opacity:1;fill-rule:evenodd;stroke:none;stroke-width:10;stroke-linecap:round;stroke-linejoin:round;stroke-miterlimit:4;stroke-dasharray:none;stroke-dashoffset:0;stroke-opacity:1" />
      <path
         inkscape:connector-curvature="0"
         d="m 210.07,-170.88 c 2.4,-0.87 4.75,-1.9 7.11,-2.88 0.27,-0.11 0.54,-0.22 0.81,-0.34 0.59,-0.27 1.89,-0.94 2.36,-1.21 0.66,-0.36 2.6,-1.48 1.94,-1.12 -3.44,1.92 -5.52,3.21 -0.69,0.3 6.72,-4.06 13.48,-8.05 20.36,-11.84 4.53,-2.42 8.99,-4.97 13.5,-7.43 0,0 -5.58,4.5 -5.58,4.5 l 0,0 c -4.52,2.45 -9.01,4.99 -13.53,7.45 -1.75,0.96 -8.22,4.54 0.2,-0.22 0.88,-0.5 -1.75,1.03 -2.63,1.55 -0.93,0.55 -4.92,2.93 -5.82,3.47 -5.3,3.24 -2.76,1.71 -11.36,6.72 -1.73,1.01 -3.48,2.02 -5.35,2.73 -2.4,0.98 -4.79,2.01 -7.22,2.9 0,0 5.9,-4.58 5.9,-4.58 z"
         id="path4965"
         style="opacity:1;fill:#ff00ff;fill-opacity:1;fill-rule:evenodd;stroke:none;stroke-width:10;stroke-linecap:round;stroke-linejoin:round;stroke-miterlimit:4;stroke-dasharray:none;stroke-dashoffset:0;stroke-opacity:1" />
      <path
         inkscape:connector-curvature="0"
         d="m 241.97,-77.4 c 2.21,3.764 4.45,7.515 6.49,11.376 1.47,2.729 3.04,5.404 4.64,8.063 1.68,2.896 3.25,5.85 4.83,8.804 1.8,3.524 3.7,6.991 5.74,10.382 2.14,3.041 3.86,6.311 5.45,9.655 1.53,3.588 3.59,6.909 5.54,10.276 2.25,4.323 4.24,8.772 6.57,13.0547 1.77,3.1822 3.54,6.36728 5.21,9.603 0.84,1.6362 1.66,3.2841 2.57,4.8793 0,0 -6.38,3.669 -6.38,3.669 l 0,0 c -0.87,-1.631 -1.68,-3.2906 -2.51,-4.9423 -1.64,-3.2514 -3.4,-6.43229 -5.1,-9.6526 -2.23,-4.3167 -4.27,-8.7401 -6.61,-13.0021 -1.98,-3.372 -4.02,-6.724 -5.56,-10.328 -1.6,-3.318 -3.36,-6.535 -5.43,-9.586 -2.04,-3.407 -3.91,-6.902 -5.74,-10.423 -1.61,-2.922 -3.22,-5.844 -4.93,-8.705 -1.61,-2.674 -3.07,-5.432 -4.5,-8.201 -1.96,-3.857 -4.14,-7.626 -6.7,-11.112 0,0 6.42,-3.81 6.42,-3.81 z"
         id="path4967"
         style="opacity:1;fill:#0000ff;fill-opacity:1;fill-rule:evenodd;stroke:none;stroke-width:10;stroke-linecap:round;stroke-linejoin:round;stroke-miterlimit:4;stroke-dasharray:none;stroke-dashoffset:0;stroke-opacity:1" />
      <path
         inkscape:connector-curvature="0"
         d="m 229.52,-96.388 c -1.38,2.251 -3.01,4.328 -4.55,6.471 -1.81,2.563 -3.43,5.248 -4.89,8.029 -0.6,1.175 -0.96,2.427 -1.08,3.735 0,0.903 -0.17,1.828 0,2.724 0.14,0.661 0.51,1.488 0.76,2.096 1.22,2.483 2.66,4.848 3.89,7.33 1.55,3.266 3.68,6.199 5.66,9.212 1.01,1.543 2.09,3.081 3.39,4.408 0.44,0.45 1.28,1.136 1.75,1.542 2.08,1.696 4.54,2.551 7.07,3.309 2.66,0.835 5.41,1.313 8.18,1.597 1.82,0.147 3.64,0.147 5.45,0.146 1.12,0 2.23,-0.01 3.35,-0.04 0,0 -6.02,4.375 -6.02,4.375 l 0,0 c -1.08,-0.02 -2.17,-0.02 -3.26,-0.02 -1.84,0 -3.69,0.06 -5.52,-0.207 -2.75,-0.409 -5.48,-0.973 -8.14,-1.773 -2.63,-0.782 -5.17,-1.73 -7.3,-3.516 -2.05,-1.774 -3.79,-3.84 -5.16,-6.189 -1.95,-3.06 -4.06,-6.032 -5.72,-9.264 -1.27,-2.476 -2.73,-4.847 -3.98,-7.335 -0.25,-0.552 -0.75,-1.625 -0.92,-2.228 -0.26,-0.918 -0.18,-1.887 -0.18,-2.828 0.1,-1.425 0.44,-2.776 1.08,-4.064 1.52,-2.828 3.22,-5.549 5.04,-8.194 1.43,-2.074 2.99,-4.078 4.23,-6.272 0,0 6.85,-3.038 6.85,-3.038 z"
         id="path4975"
         style="opacity:1;fill:#ff00ff;fill-opacity:1;fill-rule:evenodd;stroke:none;stroke-width:10;stroke-linecap:round;stroke-linejoin:round;stroke-miterlimit:4;stroke-dasharray:none;stroke-dashoffset:0;stroke-opacity:1" />
      <path
         inkscape:connector-curvature="0"
         d="m 253.12,-93.821 c 3.16,0.08 6.31,0.02 9.46,0.308 2.61,0.28 5.18,0.771 7.74,1.34 0.53,0.242 1.2,0.292 1.66,0.688 0.51,0.434 0.93,1.11 1.32,1.639 1.08,1.717 2.19,3.417 3.3,5.116 1.12,1.725 2.06,3.548 3.13,5.298 0.72,1.081 1.33,2.231 1.66,3.49 0.2,1.835 0,3.716 -0.2,5.55 -0.13,1.207 -0.42,2.368 -1.14,3.358 -2.2,1.313 -4.4,2.625 -6.61,3.938 0,0 5.86,-4.707 5.86,-4.707 l 0,0 c -2.04,1.23 -4.09,2.459 -6.13,3.689 0.88,-0.883 1.23,-1.776 1.41,-3.02 0.28,-1.726 0.39,-3.525 0.25,-5.264 -0.27,-1.208 -0.84,-2.288 -1.48,-3.338 -1.03,-1.765 -1.96,-3.583 -3.07,-5.293 -1.11,-1.685 -2.21,-3.372 -3.35,-5.033 -0.87,-1.093 -1.29,-1.572 -2.69,-1.91 -2.46,-0.632 -4.95,-1.138 -7.49,-1.377 -3.21,-0.225 -6.43,-0.215 -9.65,-0.101 0,0 6.02,-4.371 6.02,-4.371 z"
         id="path4977"
         style="opacity:1;fill:#ff00ff;fill-opacity:1;fill-rule:evenodd;stroke:none;stroke-width:10;stroke-linecap:round;stroke-linejoin:round;stroke-miterlimit:4;stroke-dasharray:none;stroke-dashoffset:0;stroke-opacity:1" />
      <path
         inkscape:connector-curvature="0"
         d="m 196.79,-163.17 c 3.8,-3.05 7.9,-5.73 12.05,-8.27 5.27,-3.27 10.75,-6.14 16.34,-8.81 3.71,-1.82 7.42,-3.65 11.15,-5.44 2.61,-1.23 5.27,-2.33 7.91,-3.48 0.5,-0.22 1,-0.43 1.49,-0.66 0.46,-0.21 0.91,-0.42 1.36,-0.64 5,-2.42 -7.4,4.45 -3.42,1.99 0.22,-0.14 0.44,-0.27 0.67,-0.41 2.33,-1.34 4.65,-2.7 6.99,-4.03 0.21,-0.11 0.44,-0.19 0.66,-0.3 0.17,-0.1 0.67,-0.35 0.5,-0.25 -6.09,3.51 -8.45,3.51 -5.97,3.49 0,0 6.93,-2.96 6.93,-2.96 l 0,0 c 0,0.1 0,0.21 -0.1,0.26 -2.21,1.34 -4.46,2.58 -6.7,3.86 -0.36,0.2 -1.46,0.76 -1.11,0.55 1.89,-1.1 3.78,-2.18 5.67,-3.28 -4.16,2.39 -8.16,5.08 -12.64,6.84 -2.65,1.16 -5.31,2.29 -7.92,3.52 -3.7,1.73 -7.35,3.56 -11.03,5.35 -1.8,0.88 -3.58,1.78 -5.37,2.69 -0.51,0.26 -2.01,1.08 -1.53,0.77 1.47,-0.93 3.01,-1.75 4.49,-2.65 0.62,-0.38 -1.25,0.71 -1.88,1.07 -4.04,2.4 -7.98,4.98 -11.64,7.92 0,0 -6.93,2.87 -6.93,2.87 z"
         id="path4979"
         style="opacity:1;fill:#ff00ff;fill-opacity:1;fill-rule:evenodd;stroke:none;stroke-width:10;stroke-linecap:round;stroke-linejoin:round;stroke-miterlimit:4;stroke-dasharray:none;stroke-dashoffset:0;stroke-opacity:1" />
      <path
         inkscape:connector-curvature="0"
         d="m 203.47,-168.01 c 1.42,2.07 2.19,4.49 3.02,6.84 1.83,5.29 3.71,10.57 5.81,15.76 1.96,4.58 4.34,8.97 6.68,13.36 3.12,5.87 6.05,11.83 8.84,17.86 2.15,4.75 4.44,9.43 6.83,14.06 1.09,2.117 1.64,4.437 2.26,6.718 0.73,3.389 1.76,6.687 2.99,9.921 0.87,2.387 1.83,4.737 2.61,7.155 0,0 -6.43,3.523 -6.43,3.523 l 0,0 c -0.7,-2.442 -1.7,-4.768 -2.48,-7.184 -1.17,-3.267 -2.21,-6.572 -3.09,-9.932 -0.63,-2.236 -1.2,-4.495 -2.17,-6.619 -2.13,-4.772 -4.08,-9.632 -6.31,-14.372 -2.83,-5.99 -5.97,-11.82 -9.15,-17.63 -2.37,-4.42 -4.68,-8.86 -6.65,-13.47 -2.07,-5.2 -3.86,-10.51 -5.92,-15.71 -0.92,-2.22 -1.77,-4.53 -3.27,-6.43 0,0 6.43,-3.85 6.43,-3.85 z"
         id="path4981"
         style="opacity:1;fill:#ff00ff;fill-opacity:1;fill-rule:evenodd;stroke:none;stroke-width:10;stroke-linecap:round;stroke-linejoin:round;stroke-miterlimit:4;stroke-dasharray:none;stroke-dashoffset:0;stroke-opacity:1" />
      <path
         inkscape:connector-curvature="0"
         d="m 234.2,-109.69 c 2.43,-0.61 4.77,-1.62 7.12,-2.49 2.03,-0.8 4.11,-1.42 6.25,-1.78 0.55,0 0.95,0 1.41,0.33 0,0 -6.27,4.14 -6.27,4.14 l 0,0 c -0.36,-0.1 -0.71,-0.1 -1.07,0 -2.06,0.36 -4.04,1.01 -5.99,1.75 -2.44,0.91 -4.85,1.93 -7.37,2.61 0,0 5.92,-4.56 5.92,-4.56 z"
         id="path4983"
         style="opacity:1;fill:#00ff54;fill-opacity:1;fill-rule:evenodd;stroke:none;stroke-width:10;stroke-linecap:round;stroke-linejoin:round;stroke-miterlimit:4;stroke-dasharray:none;stroke-dashoffset:0;stroke-opacity:1" />
      <path
         inkscape:connector-curvature="0"
         d="m 281.63,-66.646 c 0,1.39 0.3,2.741 0.58,4.093 0.32,2.166 0.33,4.37 0.26,6.554 -0.1,2.663 -0.55,5.286 -1.25,7.848 -0.42,1.647 -1.09,3.17 -1.99,4.599 -1.18,1.79 -2.43,3.531 -3.63,5.302 -2.18,3.447 -3.16,2.386 -8.12,5.774 -1.94,1.321 4.06,-2.339 6.09,-3.509 -1.16,0.612 -1.97,1.645 -2.79,2.628 -2.14,2.424 -4.16,2.901 -7.71,4.882 -0.1,0.04 -0.36,0.07 -0.43,-0.05 -0.14,-0.215 -0.22,-0.456 -0.32,-0.683 0,-0.104 0,-0.209 0.1,-0.313 0,0 6.96,-2.893 6.96,-2.893 l 0,0 c -0.1,-0.02 -0.13,-0.03 -0.2,-0.05 -0.12,-0.165 -0.25,-0.324 -0.37,-0.493 0,-0.07 0.22,-0.221 0.15,-0.181 -10.94,6.448 -6.85,4.507 -4.93,2.663 0.83,-0.959 1.54,-2.081 2.6,-2.812 2.24,-1.296 4.38,-2.775 6.72,-3.887 2.11,-1.002 -4.02,2.376 -6.03,3.556 -0.12,0.07 0.25,-0.14 0.36,-0.231 0.48,-0.396 0.85,-0.933 1.19,-1.442 1.2,-1.779 2.55,-3.459 3.67,-5.296 0.9,-1.383 1.67,-2.825 2.1,-4.431 0.85,-2.48 1.32,-5.079 1.4,-7.7 0.1,-2.113 0,-4.24 -0.32,-6.331 -0.28,-1.396 -0.56,-2.782 -0.71,-4.2 0,0 6.67,-3.395 6.67,-3.395 z"
         id="path4985"
         style="opacity:1;fill:#00ff54;fill-opacity:1;fill-rule:evenodd;stroke:none;stroke-width:10;stroke-linecap:round;stroke-linejoin:round;stroke-miterlimit:4;stroke-dasharray:none;stroke-dashoffset:0;stroke-opacity:1" />
      <path
         inkscape:connector-curvature="0"
         d="m 267.75,-26.984 c 1.15,-0.741 1.49,-0.972 2.77,-1.708 2.68,-1.538 5.36,-3.092 8.07,-4.583 2.25,-1.239 4.69,-2.152 7.08,-3.084 5.77,-2.348 11.75,-4.075 17.78,-5.593 8.46,-2.128 16.77,-4.738 25.05,-7.468 6.42,-2.009 12.66,-4.539 18.6,-7.685 -1.38,0.773 -2.72,1.639 -4.15,2.32 -0.59,0.282 1.09,-0.735 1.62,-1.116 1.62,-1.158 3.18,-2.394 4.72,-3.661 1.42,-1.202 2.78,-2.47 3.99,-3.88 0.19,-0.347 0.6,-0.587 0.1,-0.634 -1.71,-0.152 1.31,0.08 -1.2,-0.105 -1.45,-0.08 -2.88,-0.131 -4.3,0.159 -1.11,0.664 -2.25,1.225 -3.44,1.745 -2.92,1.16 -5.82,2.361 -8.67,3.676 -4.47,1.588 -8.97,3.074 -13.49,4.506 -6.69,1.906 -13.37,3.855 -19.99,5.987 -4.08,1.42 -8.27,2.501 -12.31,4.036 -1.16,0.442 -2.3,0.945 -3.45,1.418 -4.64,1.857 -9.13,4.058 -13.7,6.068 -0.49,0.304 -1.06,0.465 -1.57,0.729 -0.21,0.108 -0.81,0.48 -0.61,0.363 10.19,-5.805 6.71,-4.158 4.7,-2.502 -0.37,0.328 -0.64,0.735 -0.9,1.156 0,0 -6.8,3.079 -6.8,3.079 l 0,0 c 0.21,-0.515 0.47,-0.985 0.83,-1.419 2.72,-2.81 6.54,-4.33 10.07,-5.931 4.43,-1.865 8.79,-3.908 13.25,-5.696 5.24,-2.124 10.58,-3.956 15.99,-5.559 6.64,-2.001 13.29,-3.916 19.92,-5.937 4.61,-1.51 9.22,-3.028 13.73,-4.8 2.92,-1.289 5.88,-2.475 8.79,-3.771 1.19,-0.569 2.33,-1.295 3.61,-1.619 1.45,-0.16 2.91,-0.07 4.36,0.02 1.23,0.143 2.83,0.533 1.92,2.122 -1.18,1.511 -2.62,2.788 -4.04,4.065 -4.53,3.633 -9.11,7.071 -14.43,9.569 -5.86,2.99 -12,5.358 -18.29,7.299 -8.36,2.724 -16.75,5.375 -25.26,7.575 -6.07,1.584 -12.07,3.394 -17.88,5.78 -2.31,0.934 -2.68,1.044 -4.91,2.111 -0.74,0.353 -2.88,1.57 -2.2,1.104 1.31,-0.904 2.73,-1.625 4.11,-2.424 0.51,-0.296 -1.01,0.608 -1.51,0.912 -0.34,0.208 -0.69,0.416 -1.03,0.624 0,0 -6.91,2.749 -6.91,2.749 z"
         id="path4987"
         style="opacity:1;fill:#00ff54;fill-opacity:1;fill-rule:evenodd;stroke:none;stroke-width:10;stroke-linecap:round;stroke-linejoin:round;stroke-miterlimit:4;stroke-dasharray:none;stroke-dashoffset:0;stroke-opacity:1" />
    </g>
    <text
       xml:space="preserve"
       style="font-style:normal;font-weight:normal;font-size:40px;line-height:125%;font-family:sans-serif;letter-spacing:0px;word-spacing:0px;fill:#000000;fill-opacity:1;stroke:none;stroke-width:1px;stroke-linecap:butt;stroke-linejoin:miter;stroke-opacity:1"
       x="450.53"
       y="-96.181"
       id="text5008"
       sodipodi:linespacing="125%"><tspan
         sodipodi:role="line"
         id="tspan5010"
         x="450.53"
         y="-96.181">ang = tan(ey/(ex-fx)^-1</tspan></text>
    <text
       xml:space="preserve"
       style="font-style:normal;font-weight:normal;font-size:11.06584px;line-height:125%;font-family:sans-serif;letter-spacing:0px;word-spacing:0px;fill:#000000;fill-opacity:1;stroke:none;stroke-width:1px;stroke-linecap:butt;stroke-linejoin:miter;stroke-opacity:1"
       x="317.74298"
       y="-109.35285"
       id="text5012"
       sodipodi:linespacing="125%"><tspan
         sodipodi:role="line"
         id="tspan5014"
         x="317.74298"
         y="-109.35285">ang</tspan></text>
    <text
       xml:space="preserve"
       style="font-style:normal;font-weight:normal;font-size:40px;line-height:125%;font-family:sans-serif;letter-spacing:0px;word-spacing:0px;fill:#000000;fill-opacity:1;stroke:none;stroke-width:1px;stroke-linecap:butt;stroke-linejoin:miter;stroke-opacity:1"
       x="161.12"
       y="-91.129997"
       id="text5016"
       sodipodi:linespacing="125%"><tspan
         sodipodi:role="line"
         id="tspan5018"
         x="161.12"
         y="-91.129997" /></text>
    <text
       xml:space="preserve"
       style="font-style:normal;font-weight:normal;font-size:10.2332px;line-height:125%;font-family:sans-serif;letter-spacing:0px;word-spacing:0px;fill:#000000;fill-opacity:1;stroke:none;stroke-width:1px;stroke-linecap:butt;stroke-linejoin:miter;stroke-opacity:1"
       x="216.11397"
       y="-98.068886"
       id="text5020"
       sodipodi:linespacing="125%"><tspan
         sodipodi:role="line"
         id="tspan5022"
         x="216.11397"
         y="-98.068886">90-ang</tspan></text>
    <text
       xml:space="preserve"
       style="font-style:normal;font-weight:normal;font-size:40px;line-height:125%;font-family:sans-serif;letter-spacing:0px;word-spacing:0px;fill:#000000;fill-opacity:1;stroke:none;stroke-width:1px;stroke-linecap:butt;stroke-linejoin:miter;stroke-opacity:1"
       x="405.67001"
       y="-32.947998"
       id="text5024"
       sodipodi:linespacing="125%"><tspan
         sodipodi:role="line"
         id="tspan5026"
         x="405.67001"
         y="-32.947998">Gx = Gy/tan(90-ang)</tspan></text>
    <text
       xml:space="preserve"
       style="font-style:normal;font-weight:normal;font-size:40px;line-height:125%;font-family:sans-serif;letter-spacing:0px;word-spacing:0px;fill:#000000;fill-opacity:1;stroke:none;stroke-width:1px;stroke-linecap:butt;stroke-linejoin:miter;stroke-opacity:1"
       x="290.92001"
       y="983.66998"
       id="text5047"
       sodipodi:linespacing="125%"><tspan
         sodipodi:role="line"
         id="tspan5049"
         x="290.92001"
         y="983.66998" /></text>
    <text
       xml:space="preserve"
       style="font-style:normal;font-weight:normal;font-size:40px;line-height:125%;font-family:sans-serif;letter-spacing:0px;word-spacing:0px;fill:#000000;fill-opacity:1;stroke:none;stroke-width:1px;stroke-linecap:butt;stroke-linejoin:miter;stroke-opacity:1"
       x="-272.73999"
       y="1727.1"
       id="text5079"
       sodipodi:linespacing="125%"><tspan
         sodipodi:role="line"
         id="tspan5081"
         x="-272.73999"
         y="1727.1">nx^2-2exnx+ex^2+ny^2-2nyey+ey^2 = dist^2</tspan></text>
    <text
       xml:space="preserve"
       style="font-style:normal;font-weight:normal;font-size:40px;line-height:125%;font-family:sans-serif;letter-spacing:0px;word-spacing:0px;fill:#000000;fill-opacity:1;stroke:none;stroke-width:1px;stroke-linecap:butt;stroke-linejoin:miter;stroke-opacity:1"
       x="264.66"
       y="858.40997"
       id="text5083"
       sodipodi:linespacing="125%"><tspan
         sodipodi:role="line"
         id="tspan5085"
         x="264.66"
         y="858.40997">nx = sin(atan((by-ey)/(bx-ex)))*dist</tspan></text>
    <path
       style="opacity:1;fill:#00ff54;fill-opacity:1;fill-rule:evenodd;stroke:none;stroke-width:10;stroke-linecap:round;stroke-linejoin:round;stroke-miterlimit:4;stroke-dasharray:none;stroke-dashoffset:0;stroke-opacity:1"
       id="path5087"
       d="m 185.52,504.15 c 6.09,0.17 12.19,0.11 18.28,0.1 4.64,-0.1 9.35,0.54 13.46,2.76 3.97,2.11 5.54,4.04 7.29,8.09 0.62,1.5 1.27,2.98 1.98,4.43 0,0 -26.03,14.81 -26.03,14.81 l 0,0 c -0.75,-1.49 -1.36,-3.02 -1.97,-4.58 -1.53,-3.33 -2.75,-4.64 -6.18,-6.28 -3.98,-1.56 -8.29,-1.87 -12.53,-1.81 -6.17,0 -12.34,-0.1 -18.5,0.1 0,0 24.2,-17.58 24.2,-17.58 z"
       inkscape:connector-curvature="0" />
    <path
       style="opacity:1;fill:#00ff54;fill-opacity:1;fill-rule:evenodd;stroke:none;stroke-width:10;stroke-linecap:round;stroke-linejoin:round;stroke-miterlimit:4;stroke-dasharray:none;stroke-dashoffset:0;stroke-opacity:1"
       id="path5089"
       d="m 391.59,190.35 c 5.09,2.5 10.27,4.67 15.29,7.29 3.98,2.26 8.28,3.05 12.76,3.4 3.72,0.63 7.13,-0.32 10.73,-1.02 17.87,-9.49 -30.62,18.54 -19.63,11.38 0,0 27.98,-10.85 27.98,-10.85 l 0,0 c -10.44,6.29 -20.28,14.55 -32.19,17.49 -3.72,0.72 -7.43,0.84 -11.2,0.26 -4.7,-0.65 -9.13,-1.96 -13.25,-4.41 -5.1,-2.68 -10.46,-4.77 -15.66,-7.25 0,0 25.17,-16.29 25.17,-16.29 z"
       inkscape:connector-curvature="0" />
  </g>
</svg>
